<svg xmlns="http://www.w3.org/2000/svg" version="1.1" xmlns:xlink="http://www.w3.org/1999/xlink" xmlns:svgjs="http://svgjs.dev/svgjs" viewBox="0 0 800 800"><defs><linearGradient x1="50%" y1="0%" x2="50%" y2="100%" id="ffflurry-grad" gradientTransform="rotate(270)"><stop stop-color="hsl(238, 82%, 13%)" stop-opacity="1" offset="0%"></stop><stop stop-color="hsl(185, 53%, 55%)" stop-opacity="1" offset="45%"></stop><stop stop-color="hsl(0, 73%, 55%)" stop-opacity="1" offset="100%"></stop></linearGradient></defs><rect width="100%" height="100%" fill="hsl(238, 82%, 13%)"></rect><g fill="url(#ffflurry-grad)"><rect width="445" height="3" x="204.5" y="484.5" rx="1.5" transform="rotate(45, 427, 486)" opacity="0.34"></rect><rect width="466" height="3" x="463" y="164.5" rx="1.5" transform="rotate(45, 696, 166)" opacity="0.53"></rect><rect width="852" height="3" x="-189" y="676.5" rx="1.5" transform="rotate(45, 237, 678)" opacity="0.08"></rect><rect width="281" height="3" x="231.5" y="723.5" rx="1.5" transform="rotate(45, 372, 725)" opacity="0.76"></rect><rect width="713" height="3" x="338.5" y="522.5" rx="1.5" transform="rotate(45, 695, 524)" opacity="0.65"></rect><rect width="965" height="3" x="-374.5" y="560.5" rx="1.5" transform="rotate(45, 108, 562)" opacity="0.23"></rect><rect width="1301" height="3" x="-511.5" y="216.5" rx="1.5" transform="rotate(45, 139, 218)" opacity="0.09"></rect><rect width="635" height="3" x="195.5" y="304.5" rx="1.5" transform="rotate(45, 513, 306)" opacity="0.77"></rect><rect width="307" height="3" x="542.5" y="725.5" rx="1.5" transform="rotate(45, 696, 727)" opacity="0.17"></rect><rect width="1007" height="3" x="-116.5" y="102.5" rx="1.5" transform="rotate(45, 387, 104)" opacity="0.87"></rect><rect width="633" height="3" x="194.5" y="696.5" rx="1.5" transform="rotate(45, 511, 698)" opacity="0.43"></rect></g></svg>
